<svg width="25" height="24" viewBox="0 0 25 24" fill="none" xmlns="http://www.w3.org/2000/svg">
<path d="M2.91699 12.2039C2.91699 9.91549 2.91699 8.77128 3.43619 7.82274C3.95539 6.87421 4.90394 6.28551 6.80103 5.10813L8.80102 3.86687C10.8064 2.62229 11.8091 2 12.917 2C14.0249 2 15.0276 2.62229 17.033 3.86687L19.033 5.10812C20.93 6.28551 21.8786 6.87421 22.3978 7.82274C22.917 8.77128 22.917 9.91549 22.917 12.2039V13.725C22.917 17.6258 22.917 19.5763 21.7454 20.7881C20.5738 22 18.6882 22 14.917 22H10.917C7.14576 22 5.26014 22 4.08857 20.7881C2.91699 19.5763 2.91699 17.6258 2.91699 13.725V12.2039Z" stroke="#1F2937" stroke-width="1.5"/>
<path d="M9.91699 16C10.7674 16.6303 11.8016 17 12.917 17C14.0324 17 15.0666 16.6303 15.917 16" stroke="#1F2937" stroke-width="1.5" stroke-linecap="round"/>
</svg>
